HIERARCHY
ROOT Hips
{
  OFFSET 95.5268 101.584 187.439
  CHANNELS 6 Xposition Yposition Zposition Zrotation Xrotation Yrotation
  JOINT RightUpLeg
  {
    OFFSET -8.9458 -8.66707 0.101652
    CHANNELS 3 Zrotation Xrotation Yrotation
    JOINT RightLeg
    {
      OFFSET 0 -44.4227 1.3727
      CHANNELS 3 Zrotation Xrotation Yrotation
      JOINT RightFoot
      {
        OFFSET 0.253549 -42.0924 -1.46059
        CHANNELS 3 Zrotation Xrotation Yrotation
        JOINT RightToes
        {
          OFFSET 0.04 -4.41509 8.4991
          CHANNELS 3 Zrotation Xrotation Yrotation
          End Site
          {
            OFFSET -0.08 -0.137448 9.77979
          }
        }
      }
    }
  }
  JOINT Spine
  {
    OFFSET 0 11.8905 0
    CHANNELS 3 Zrotation Xrotation Yrotation
    JOINT Spine1
    {
      OFFSET 0 25.6574 0.127663
      CHANNELS 3 Zrotation Xrotation Yrotation
      JOINT HEad
      {
        OFFSET 0 8.73416 0.011341
        CHANNELS 3 Zrotation Xrotation Yrotation
        End Site
        {
          OFFSET -0.29 12.7742 2.51395
        }
      }
      JOINT LeftShoulder1
      {
        OFFSET 8.99 -0.362252 -0.22
        CHANNELS 3 Zrotation Xrotation Yrotation
        JOINT LeftArm
        {
          OFFSET 10.2827 -0.00338 0.322123
          CHANNELS 3 Zrotation Xrotation Yrotation
          JOINT LeftForeArm
          {
            OFFSET 32.7669 0.099144 -1.42434
            CHANNELS 3 Zrotation Xrotation Yrotation
            JOINT LeftHand
            {
              OFFSET 27.5643 0.085362 1.02216
              CHANNELS 3 Zrotation Xrotation Yrotation
              End Site
              {
                OFFSET 16.7443 -0.6 1.50291
              }
            }
          }
        }
      }
      JOINT RightShoulder
      {
        OFFSET -8.99 -0.362252 -0.22
        CHANNELS 3 Zrotation Xrotation Yrotation
        JOINT RightArm
        {
          OFFSET -10.2827 -0.00338 0.322123
          CHANNELS 3 Zrotation Xrotation Yrotation
          JOINT RightForeArm
          {
            OFFSET -32.8971 0.099144 -1.42434
            CHANNELS 3 Zrotation Xrotation Yrotation
            JOINT RightHand
            {
              OFFSET -27.4921 0.085362 1.02216
              CHANNELS 3 Zrotation Xrotation Yrotation
              End Site
              {
                OFFSET -16.6312 -0.6 1.50291
              }
            }
          }
        }
      }
    }
  }
  JOINT LeftUpLeg
  {
    OFFSET 8.9458 -8.66707 0.101652
    CHANNELS 3 Zrotation Xrotation Yrotation
    JOINT LeftLeg
    {
      OFFSET 0 -44.4227 1.3727
      CHANNELS 3 Zrotation Xrotation Yrotation
      JOINT LeftFoot
      {
        OFFSET -0.253549 -42.0924 -1.46059
        CHANNELS 3 Zrotation Xrotation Yrotation
        JOINT LeftToes
        {
          OFFSET -0.04 -4.41509 8.4991
          CHANNELS 3 Zrotation Xrotation Yrotation
          End Site
          {
            OFFSET 0.08 -0.047448 9.77979
          }
        }
      }
    }
  }
}
MOTION
Frames:	17
Frame Time:	0.0166667
97.0341 99.4152 186.907 -15.1592 -0.727124 -70.3887 -11.947 -4.42018 -0.841924 35.2182 26.0542 -22.1683 -30.8728 -0.882841 -1.78067 0.0462048 0.000533403 0.662642 -4.77148 28.9906 -7.64313 -0.000107195 0.04371 0.11337 -6.61346 5.05282 26.911 -1.59028e-015 2.18663e-015 -1.59028e-015 168.755 -55.8997 -162.194 -83.1936 71.2268 -36.2256 20.6712 10.2417 -9.81492 17.4996 12.8631 16.6095 104.769 -13.8893 79.5424 37.1084 57.331 79.8942 18.5113 20.9885 4.46209 28.1465 -7.03484 -5.89912 -30.6104 17.6714 78.3904 0.480722 -1.71307 -0.130159 -1.86167e-008 1.56035e-007 -4.88727e-009 
97.0777 98.8344 186.95 -14.4601 -1.57806 -69.2394 -10.4711 -5.83673 -2.7147 30.5379 29.1312 -21.0984 -31.1218 -0.455509 -1.66321 0.0462048 0.000533403 0.662642 -3.6208 27.8492 -5.87986 -0.00923763 0.05182 0.0950102 -7.02399 6.06383 22.2852 -1.59028e-015 -1.98785e-015 -0 174.424 -57.0377 -154.522 -81.4026 71.334 -36.9596 20.5274 10.1791 -9.97178 16.9299 12.0856 12.3969 104.989 -12.6984 79.8144 37.039 57.2479 79.8115 16.0003 18.8765 5.67094 27.7932 -8.12724 -7.91213 -32.2135 16.5551 80.5146 1.66763 -1.79081 -0.133654 -1.86167e-008 1.56035e-007 -4.88727e-009 
97.0914 98.308 187.021 -13.8064 -2.35464 -68.0408 -9.26456 -7.35602 -3.15732 27.2839 31.1288 -21.5665 -30.5319 -0.221822 -1.57863 0.0462048 0.000533403 0.662642 -2.5559 26.576 -4.05323 -0.0184104 0.01749 -0.0184996 -7.21314 7.19826 17.8847 -1.59028e-015 -1.59028e-015 6.36111e-015 -179.397 -57.8837 -146.51 -80.291 71.1841 -36.8812 20.4866 10.6389 -10.202 16.3707 11.6383 8.25746 105.196 -11.5989 79.6608 36.6864 57.1939 79.8826 17.6635 19.968 3.17051 27.3353 -9.10197 -9.81688 -33.4653 15.3872 81.9576 2.82921 -1.831 -0.118088 -1.86167e-008 1.56035e-007 -4.88727e-009 
97.0655 97.8358 187.141 -13.2009 -3.0482 -66.8207 -8.37394 -8.74056 -2.3397 25.2068 32.497 -23.3568 -30.2065 0.055414 -1.47426 0.0462048 0.000533403 0.662642 -1.60644 25.1753 -2.21802 -0.0184067 0.01823 -0.0294756 -7.16008 8.37861 13.5775 -0 -4.37326e-015 -0 -172.534 -58.3262 -137.967 -79.255 70.8409 -36.6143 20.5646 10.9553 -10.6287 15.8752 11.3988 4.12754 105.407 -10.6623 79.2714 36.221 57.1305 80.1794 16.2784 19.0217 3.99271 26.8272 -9.95794 -11.5825 -34.4804 14.2799 82.8224 3.90667 -1.89242 -0.0970913 -1.86167e-008 1.56035e-007 -4.88727e-009 
96.9969 97.4314 187.305 -12.645 -3.65559 -65.6024 -7.90987 -9.83424 -0.409938 24.4247 33.2784 -26.3633 -30.079 0.308128 -1.38701 0.0462048 0.000533403 0.662642 -0.801045 23.6517 -0.418458 -0.0184056 0.01823 -0.0327783 -6.86123 9.60397 9.51572 -3.08973e-031 -5.56597e-015 -3.18055e-015 -165.284 -58.3639 -129.279 -77.8615 70.3316 -36.6231 20.6498 11.4985 -11.0429 15.5167 11.4272 0.223648 105.588 -9.96201 78.7626 35.7248 57.1041 80.6207 17.4611 19.7863 2.46686 26.2898 -10.6812 -13.188 -35.2703 13.2726 83.1762 4.88135 -1.97231 -0.0694415 -1.86167e-008 1.56035e-007 -4.88727e-009 
96.8907 97.0859 187.499 -12.1416 -4.17945 -64.4058 -7.68814 -10.7197 1.39403 24.145 33.9628 -29.3265 -30.2184 0.545593 -1.31719 0.0462048 0.000533403 0.662642 -0.186565 22.4076 1.06011 -0.0184057 0.01823 -0.0325612 -6.34806 10.4292 5.95726 -7.95139e-016 1.59028e-015 -6.36111e-015 -158.429 -57.7093 -121.376 -75.8524 69.6858 -37.191 20.7573 11.9169 -11.5263 15.2836 11.3922 -3.09304 105.716 -9.46546 78.1949 35.2847 57.0761 81.1942 16.7613 19.3347 2.9264 25.7653 -11.2871 -14.6148 -35.889 12.4003 83.1124 5.74943 -2.07293 -0.0392978 -1.86167e-008 1.56035e-007 -4.88727e-009 
96.7558 96.7936 187.715 -11.6944 -4.62903 -63.2462 -7.67165 -11.4103 3.05956 24.3293 34.4692 -32.2277 -30.648 0.771064 -1.26567 0.0462048 0.000533403 0.662642 0.241766 21.4097 2.2381 -0.0184063 0.01823 -0.0308221 -5.68005 10.8912 2.8882 -1.76556e-031 1.59028e-015 6.36111e-015 -152.189 -56.5212 -114.452 -73.1809 68.9172 -38.3986 20.8227 12.4326 -11.9484 15.194 11.2882 -5.82859 105.767 -9.19179 77.6094 34.9221 57.0712 81.8336 17.6128 19.832 1.94705 25.2702 -11.7865 -15.8546 -36.3612 11.6696 82.7174 6.52278 -2.18956 -0.0072469 -1.86167e-008 1.56035e-007 -4.88727e-009 
96.6015 96.5461 187.947 -11.3052 -5.01682 -62.1343 -7.8213 -11.9171 4.58175 24.9027 34.7515 -35.0387 -31.3668 0.990113 -1.23047 0.0462048 0.000533403 0.662642 0.494079 20.6296 3.13806 -0.018407 0.01823 -0.0284162 -4.90702 11.0364 0.290275 7.95139e-016 -3.97569e-016 -0 -146.665 -54.96 -108.57 -69.9571 68.0288 -40.1739 20.863 12.8431 -12.3613 15.2323 11.1188 -8.02022 105.746 -9.13413 77.0425 34.6555 57.0618 82.518 17.275 19.6281 2.17786 24.8113 -12.1931 -16.9052 -36.711 11.0776 82.0754 7.21802 -2.31821 0.0259992 -1.86167e-008 1.56035e-007 -4.88727e-009 
96.4351 96.3339 188.188 -10.9734 -5.35551 -61.0767 -8.10061 -12.2519 5.96091 25.7756 34.7914 -37.7277 -32.3576 1.20787 -1.20814 0.0462048 0.000533403 0.662642 0.583966 20.042 3.78387 -0.0184077 0.01823 -0.0261988 -4.06937 10.9134 -1.85754 -7.95139e-016 7.95139e-016 6.36111e-015 -141.863 -53.1763 -103.693 -66.3787 67.0226 -42.3556 20.844 13.282 -12.6899 15.381 10.8963 -9.70215 105.673 -9.26709 76.5088 34.4587 57.0646 83.2088 17.85 19.9516 1.53619 24.3899 -12.5216 -17.7677 -36.9619 10.6174 81.2628 7.8509 -2.45523 0.0596493 -1.86167e-008 1.56035e-007 -4.88727e-009 
96.2646 96.1872 188.432 -10.6957 -5.65682 -60.0763 -8.61435 -12.493 7.20821 26.8351 34.8552 -40.3122 -31.796 1.28273 -1.19045 0.0462048 0.000533403 0.662642 0.527207 19.6244 4.19939 -0.0184084 0.01823 -0.0242534 -3.20016 10.5698 -3.57792 -1.32417e-031 -2.38542e-015 -3.18055e-015 -137.725 -51.3018 -99.7204 -62.6584 65.904 -44.7631 20.7824 13.6406 -12.9767 15.6074 10.6414 -10.9277 105.58 -9.55108 76.0198 34.3237 57.0669 83.8969 17.6733 19.8496 1.63508 23.9457 -12.7411 -18.4609 -37.0006 10.2448 80.301 8.43958 -2.5296 0.102092 -1.86167e-008 1.56035e-007 -4.88727e-009 
96.0903 96.063 188.672 -10.4678 -5.92964 -59.1346 -9.18579 -12.5979 8.3222 28.1023 34.6564 -42.7709 -31.5237 1.36147 -1.18594 0.0462048 0.000533403 0.662642 0.341412 19.3564 4.41039 -0.018409 0.01823 -0.0221792 -2.32645 10.0507 -4.89725 1.19271e-015 -1.98785e-015 -3.18055e-015 -134.169 -49.4465 -96.5237 -58.9902 64.6924 -47.2343 20.6677 14.0065 -13.1857 15.8857 10.375 -11.7428 105.49 -9.94144 75.5757 34.2256 57.078 84.5601 18.0511 20.022 1.20172 23.536 -12.9067 -18.9756 -36.9773 9.9932 79.2841 8.98002 -2.6028 0.141787 -1.86167e-008 1.56035e-007 -4.88727e-009 
95.9141 95.9582 188.902 -10.2851 -6.1803 -58.253 -9.80075 -12.5789 9.30743 29.4781 34.2295 -45.0636 -31.4854 1.44154 -1.19099 0.0462048 0.000533403 0.662642 0.0454633 19.22 4.44395 -0.0184097 0.01823 -0.020105 -1.46902 9.39781 -5.84497 3.97569e-016 0 -6.36111e-015 -131.11 -47.6947 -93.9801 -55.527 63.4203 -49.6404 20.5255 14.3272 -13.3535 16.1942 10.1127 -12.211 105.411 -10.3839 75.1715 34.1489 57.0804 85.2019 17.9885 19.9409 1.21182 23.1592 -13.0268 -19.3189 -36.9052 9.85854 78.2466 9.47362 -2.67233 0.178205 -1.86167e-008 1.56035e-007 -4.88727e-009 
95.7369 95.8704 189.119 -10.1435 -6.41305 -57.4329 -10.4456 -12.4479 10.1696 30.8854 33.6139 -47.1571 -31.6336 1.5203 -1.20268 0.0462048 0.000533403 0.662642 -0.34109 19.1987 4.32835 -0.0184097 0.01823 -0.020105 -0.642809 8.6497 -6.45435 -1.19271e-015 7.95139e-016 1.27222e-014 -128.485 -46.1097 -91.9846 -52.3808 62.135 -51.8845 20.3655 14.6554 -13.4649 16.5293 9.85925 -12.3915 105.325 -10.8274 74.7943 34.0594 57.0651 85.8305 18.289 20.0241 0.886508 22.8158 -13.1081 -19.501 -36.7946 9.8366 77.2112 9.91882 -2.73633 0.210814 -1.86167e-008 1.56035e-007 -4.88727e-009 
95.5582 95.7969 189.321 -10.0396 -6.6305 -56.677 -11.1064 -12.2171 10.916 32.2687 32.8508 -49.0272 -31.9283 1.5952 -1.21871 0.0462048 0.000533403 0.662642 -0.798476 19.2768 4.09216 -0.0184097 0.01823 -0.020105 0.142255 7.84195 -6.76128 4.41391e-032 7.95139e-016 -3.18055e-015 -126.247 -44.7386 -90.4511 -49.6242 60.8912 -53.8989 20.2148 14.9509 -13.5473 16.8884 9.61501 -12.3409 105.212 -11.2316 74.4364 33.9328 57.0145 86.4611 18.3335 19.9739 0.816615 22.5071 -13.156 -19.5357 -36.6544 9.92201 76.1942 10.3125 -2.79344 0.239149 -1.86167e-008 1.56035e-007 -4.88727e-009 
95.3778 95.7499 189.509 -9.97019 -6.83422 -55.9877 -11.8227 -11.9192 11.5599 33.599 32.0828 -50.6883 -31.6367 1.60806 -1.23512 0.0462048 0.000533403 0.662642 -1.30714 19.4393 3.76272 -0.0184097 0.01823 -0.020105 0.879606 7.00607 -6.80287 -7.95139e-016 -1.98785e-015 -3.18055e-015 -124.358 -43.6101 -89.3052 -47.2878 59.7368 -55.6467 20.0801 15.232 -13.5982 17.2669 9.3806 -12.1048 105.061 -11.572 74.096 33.7537 56.9302 87.0875 18.582 20.025 0.537522 22.2119 -13.1575 -19.4467 -36.441 10.0933 75.194 10.6513 -2.81636 0.265688 -1.86167e-008 1.56035e-007 -4.88727e-009 
95.1926 95.7146 189.686 -9.93173 -7.02451 -55.3678 -12.5231 -11.5482 12.107 34.8639 31.226 -52.1166 -31.4552 1.61445 -1.25321 0.0462048 0.000533403 0.662642 -1.84804 19.671 3.36522 -0.0184097 0.01823 -0.020105 1.56435 6.16915 -6.61588 -0 0 1.27222e-014 -122.779 -42.7314 -88.4777 -45.3575 58.6997 -57.1264 19.9661 15.4747 -13.6422 17.6544 9.15802 -11.7233 104.875 -11.8397 73.7784 33.5286 56.8162 87.6929 18.6318 20.0054 0.42571 21.9541 -13.1341 -19.2473 -36.2139 10.3544 74.242 10.9325 -2.83046 0.287407 -1.86167e-008 1.56035e-007 -4.88727e-009 
95.0004 95.6911 189.855 -9.92028 -7.20068 -54.8199 -13.1969 -11.1162 12.5659 36.037 30.3219 -53.3066 -31.349 1.6121 -1.27177 0.0462048 0.000533403 0.662642 -2.40371 19.9569 2.9223 -0.0184097 0.01823 -0.020105 2.19243 5.35361 -6.23553 -7.95139e-016 1.59028e-015 -0 -121.461 -42.0885 -87.9033 -43.7829 57.785 -58.3661 19.8619 15.6983 -13.6771 18.0433 8.94866 -11.2324 104.661 -12.0334 73.4895 33.2689 56.6858 88.2522 18.756 20.0504 0.211715 21.7339 -13.0887 -18.9567 -35.9783 10.693 73.35 11.1556 -2.83517 0.304576 -1.86167e-008 1.56035e-007 -4.88727e-009 
